<svg xmlns="http://www.w3.org/2000/svg" xmlns:xlink="http://www.w3.org/1999/xlink" width="512" height="512" viewBox="0 0 512 512">
  <defs>
    <clipPath id="canvas-clip">
      <rect width="512" height="512" rx="76" ry="76"/>
    </clipPath>
  </defs>
  <rect width="512" height="512" rx="76" ry="76" fill="#131313"  clip-path="url(#canvas-clip)"/>
  <g clip-path="url(#canvas-clip)">
    <g transform="rotate(270, 256, 256)">
      
      <g transform="translate(64 64) scale(16 16) translate(0 0)"><g fill="none"><path fill="#FFFFFF" fill-opacity=".16" d="M4 22a2 2 0 1 0 0-4a2 2 0 0 0 0 4m8-16a2 2 0 1 0 0-4a2 2 0 0 0 0 4m0 16a2 2 0 1 0 0-4a2 2 0 0 0 0 4m8 0a2 2 0 1 0 0-4a2 2 0 0 0 0 4"/><path stroke="#FFFFFF" stroke-linecap="round" stroke-linejoin="round" stroke-miterlimit="10" stroke-width="1.5" d="M12 18a2 2 0 1 0 0 4a2 2 0 0 0 0-4m0 0V6m0 0a2 2 0 1 0 0-4a2 2 0 0 0 0 4m8 12a2 2 0 1 0 0 4a2 2 0 0 0 0-4m0 0v-3.293C20 13.218 18.8 12 17.333 12H6.667C5.2 12 4 13.218 4 14.707V18m0 0a2 2 0 1 0 0 4a2 2 0 0 0 0-4"/></g></g>
    </g>
  </g>
</svg>